<svg xmlns="http://www.w3.org/2000/svg" viewBox="0 0 512.001 512.001"><path fill="#f1e8e8" d="M504.501 368.402a7.5 7.5 0 007.5-7.5v-14.505c0-14.663-11.196-26.592-24.957-26.592h-12.138v-15.368c0-10.753-8.749-19.501-19.501-19.501h-60.37c-10.753 0-19.501 8.749-19.501 19.501v40.021c-53.929-6.291-121.058-6.301-175.078 0v-40.021c0-10.753-8.749-19.501-19.501-19.501h-4.77c41.115-25.037 87.096-58.988 122.947-92.053l23.542 32.364c6.334 8.71 18.563 10.613 27.242 4.3l48.821-35.51v-.001c8.695-6.324 10.624-18.545 4.299-27.242l-9.04-12.428 9.816-7.139c11.129-8.096 13.166-24.328 4.541-36.186l-40.71-55.969c-8.626-11.856-24.695-14.919-35.824-6.824l-9.817 7.141-9.039-12.427c-6.324-8.698-18.545-10.625-27.242-4.301L236.9 74.171c-8.695 6.324-10.624 18.545-4.299 27.242l23.541 32.364c-47.326 26.643-101.607 66.114-141.585 102.985L97.24 212.957c-9.752-13.407-28.62-16.387-42.025-6.633l-31.706 23.061c-13.414 9.759-16.389 28.611-6.632 42.026l2.814 3.869-9.815 7.139c-11.351 8.255-12.99 24.57-4.541 36.186l40.71 55.967c4.454 6.125 10.982 10.02 17.944 11.055v29.978c0 14.663 11.196 26.593 24.957 26.593h12.138v15.367c0 10.753 8.749 19.501 19.501 19.501h60.37c10.753 0 19.501-8.749 19.501-19.501v-40.017c21.315 2.48 45.276 4.039 69.887 4.534a7.502 7.502 0 007.651-7.348 7.5 7.5 0 00-7.349-7.649c-24.815-.5-48.922-2.097-70.189-4.64v-42.889c53.057-6.359 120.92-6.491 175.078 0v42.889c-21.265 2.543-45.373 4.14-70.189 4.64a7.501 7.501 0 00.148 14.999c.051 0 .103 0 .154-.002 24.612-.495 48.573-2.054 69.887-4.534v40.017c0 10.753 8.749 19.501 19.501 19.501h60.37c10.753 0 19.501-8.749 19.501-19.501v-15.367h12.138c13.761 0 24.957-11.93 24.957-26.593v-19.7c0-4.143-3.358-7.5-7.5-7.5s-7.5 3.357-7.5 7.5v19.7c0 6.283-4.559 11.592-9.956 11.592h-12.138v-92.39h12.138c5.396 0 9.956 5.308 9.956 11.591v14.505a7.499 7.499 0 007.5 7.499zM340.642 60.379c4.363-3.172 11.175-1.563 14.869 3.518l40.71 55.969c3.696 5.08 3.131 12.056-1.233 15.23l-9.816 7.139c-6.077-8.358-48.169-66.225-54.346-74.717l9.816-7.139zm-95.91 32.212c-1.434-1.973-.98-4.852.992-6.287l48.821-35.511c1.981-1.439 4.856-.974 6.286.993l76.621 105.34.005.006 13.447 18.486c1.435 1.973.981 4.852-.992 6.287l-48.822 35.511c-1.982 1.44-4.832 1.006-6.285-.993L244.732 92.591zm20.291 53.398l25.229 34.684c-39.021 36.216-93.755 76.252-141.588 102.979l-25.225-34.679c38.916-36.121 93.683-76.22 141.584-102.984zM63.989 346.397v23.808c-2.231-.831-4.293-2.369-5.811-4.457l-40.71-55.968c-3.865-5.312-3.001-12.15 1.233-15.23l9.815-7.139 36.768 50.55a28.484 28.484 0 00-1.295 8.436zm37.095 80.799H88.946c-5.396 0-9.956-5.308-9.956-11.592v-69.208c0-2.62.865-5.449 2.578-7.671 2.04-2.651 4.799-3.92 7.378-3.92h12.137v92.391zm0-122.76v15.368H88.946c-.609 0-1.212.031-1.811.078-.106.008-.212.016-.318.026-4.644.42-8.928 2.199-12.501 4.964l-45.307-62.287c-4.892-6.724-3.401-16.177 3.324-21.069l31.706-23.061c6.695-4.873 16.196-3.376 21.069 3.325l45.937 63.154h-10.461c-10.751 0-19.5 8.749-19.5 19.502zm84.372 153.128c0 2.439-2.061 4.5-4.5 4.5h-60.37c-2.439 0-4.5-2.061-4.5-4.5V304.437c0-2.439 2.061-4.5 4.5-4.5H180.956c2.439 0 4.5 2.061 4.5 4.5v153.127zm274.45 0c0 2.439-2.061 4.5-4.5 4.5h-60.37c-2.439 0-4.5-2.061-4.5-4.5V304.437c0-2.439 2.061-4.5 4.5-4.5h60.37c2.439 0 4.5 2.061 4.5 4.5v153.127z"/></svg>