<svg width="31" height="31" viewBox="0 0 31 31" fill="none" xmlns="http://www.w3.org/2000/svg">
<path d="M15.2791 14.9328C17.3306 14.9328 19.1068 14.197 20.5585 12.7453C22.0097 11.2939 22.7458 9.5179 22.7458 7.46617C22.7458 5.41515 22.01 3.63895 20.5583 2.18702C19.1066 0.735785 17.3304 0 15.2791 0C13.2274 0 11.4514 0.735785 9.99993 2.18725C8.54846 3.63872 7.81244 5.41491 7.81244 7.46617C7.81244 9.5179 8.54846 11.2941 9.99993 12.7456C11.4519 14.1968 13.2281 14.9328 15.2791 14.9328V14.9328ZM11.2847 3.47174C12.3984 2.35801 13.7049 1.81664 15.2791 1.81664C16.8531 1.81664 18.1598 2.35801 19.2738 3.47174C20.3875 4.58571 20.9291 5.89243 20.9291 7.46617C20.9291 9.04039 20.3875 10.3469 19.2738 11.4608C18.1598 12.5748 16.8531 13.1162 15.2791 13.1162C13.7054 13.1162 12.3989 12.5746 11.2847 11.4608C10.1707 10.3471 9.62908 9.04039 9.62908 7.46617C9.62908 5.89243 10.1707 4.58571 11.2847 3.47174Z" fill="#F1E8E8"/>
<path d="M28.3437 23.8375C28.3019 23.2334 28.2172 22.5745 28.0926 21.8787C27.9667 21.1777 27.8047 20.515 27.6108 19.9092C27.4102 19.2832 27.138 18.665 26.801 18.0725C26.4517 17.4576 26.0411 16.9221 25.5803 16.4815C25.0986 16.0205 24.5087 15.6499 23.8266 15.3796C23.1469 15.1107 22.3936 14.9744 21.5878 14.9744C21.2713 14.9744 20.9653 15.1043 20.3743 15.4891C20.0105 15.7263 19.585 16.0007 19.1101 16.3041C18.704 16.5629 18.1539 16.8053 17.4744 17.0248C16.8115 17.2393 16.1383 17.3481 15.4737 17.3481C14.8096 17.3481 14.1365 17.2393 13.4731 17.0248C12.7943 16.8055 12.244 16.5631 11.8386 16.3043C11.3681 16.0037 10.9424 15.7294 10.5732 15.4889C9.98267 15.1041 9.67662 14.9742 9.36017 14.9742C8.55414 14.9742 7.80109 15.1107 7.12159 15.3798C6.43996 15.6497 5.84987 16.0203 5.36762 16.4817C4.9069 16.9226 4.49632 17.4578 4.14722 18.0725C3.81067 18.665 3.53821 19.283 3.33765 19.9095C3.14394 20.5152 2.98193 21.1777 2.85611 21.8787C2.73123 22.5735 2.6468 23.2327 2.60493 23.8382C2.56378 24.4302 2.54297 25.0463 2.54297 25.6688C2.54297 27.287 3.05738 28.597 4.07178 29.5631C5.07364 30.5165 6.39905 30.9999 8.01135 30.9999H22.938C24.5499 30.9999 25.8753 30.5165 26.8774 29.5631C27.892 28.5977 28.4064 27.2872 28.4064 25.6685C28.4062 25.0439 28.3851 24.4278 28.3437 23.8375V23.8375ZM25.6248 28.247C24.9628 28.877 24.0839 29.1833 22.9378 29.1833H8.01135C6.86498 29.1833 5.9861 28.877 5.32434 28.2472C4.67512 27.6292 4.35961 26.7856 4.35961 25.6688C4.35961 25.0879 4.37877 24.5143 4.41708 23.9638C4.45445 23.4236 4.53085 22.8302 4.64413 22.1996C4.756 21.5769 4.89838 20.9925 5.06773 20.4634C5.23021 19.9561 5.45182 19.4537 5.72665 18.9698C5.98894 18.5086 6.29073 18.1129 6.62373 17.7941C6.93522 17.4959 7.32783 17.2518 7.79044 17.0688C8.21829 16.8994 8.69912 16.8067 9.2211 16.7927C9.28472 16.8266 9.39801 16.8911 9.58154 17.0108C9.95499 17.2542 10.3854 17.5318 10.8613 17.8358C11.3977 18.1778 12.0888 18.4866 12.9145 18.7532C13.7586 19.0261 14.6195 19.1647 15.474 19.1647C16.3285 19.1647 17.1896 19.0261 18.0333 18.7534C18.8596 18.4864 19.5505 18.1778 20.0876 17.8353C20.5746 17.524 20.993 17.2544 21.3664 17.0108C21.55 16.8914 21.6632 16.8266 21.7269 16.7927C22.2491 16.8067 22.7299 16.8994 23.158 17.0688C23.6204 17.2518 24.013 17.4961 24.3245 17.7941C24.6575 18.1127 24.9593 18.5084 25.2216 18.9701C25.4966 19.4537 25.7185 19.9563 25.8807 20.4632C26.0503 20.9929 26.1929 21.5771 26.3045 22.1994C26.4176 22.8311 26.4942 23.4247 26.5316 23.964V23.9645C26.5701 24.5129 26.5895 25.0862 26.5898 25.6688C26.5895 26.7858 26.274 27.6292 25.6248 28.247V28.247Z" fill="#F1E8E8"/>
</svg>
