<svg width="21" height="21" viewBox="0 0 21 21" fill="none" xmlns="http://www.w3.org/2000/svg">
<path d="M6.14799 8.34178C5.86738 8.03566 5.38269 8.01015 5.07656 8.29076C4.77044 8.57137 4.74493 9.05607 5.02554 9.36219L8.87758 13.5459C9.03065 13.6989 9.20922 13.801 9.4133 13.801C9.4133 13.801 9.4133 13.801 9.43881 13.801C9.64289 13.801 9.84697 13.7244 9.97452 13.5714L19.7194 3.85198C20.0255 3.54586 20.0255 3.06117 19.7194 2.78055C19.4133 2.49994 18.9286 2.47443 18.648 2.78055L9.46432 11.9387L6.14799 8.34178Z" fill="#B53471"/>
<path d="M19.5408 9.38775C19.1071 9.38775 18.7755 9.71938 18.7755 10.1531C18.7755 14.8979 14.898 18.7755 10.1531 18.7755C5.40816 18.7755 1.53061 14.8979 1.53061 10.1531C1.53061 5.40816 5.40816 1.53061 10.1531 1.53061C10.5867 1.53061 10.9184 1.19898 10.9184 0.765306C10.9184 0.331633 10.5867 0 10.1531 0C4.56633 0 0 4.56632 0 10.1531C0 15.7398 4.56633 20.3061 10.1531 20.3061C15.7398 20.3061 20.3061 15.7398 20.3061 10.1531C20.3061 9.71938 19.9745 9.38775 19.5408 9.38775Z" fill="#B53471"/>
</svg>
